<?xml version="1.0" standalone="no"?>
<!DOCTYPE svg PUBLIC "-//W3C//DTD SVG 20010904//EN"
 "http://www.w3.org/TR/2001/REC-SVG-20010904/DTD/svg10.dtd">
<svg version="1.0" xmlns="http://www.w3.org/2000/svg"
 width="512.000000pt" height="512.000000pt" viewBox="0 0 512.000000 512.000000"
 preserveAspectRatio="xMidYMid meet">

<g transform="translate(0.000000,512.000000) scale(0.100000,-0.100000)"
fill="#000000" stroke="none">
<path d="M992 4469 c-123 -21 -252 -118 -305 -230 -40 -85 -47 -158 -47 -501
l0 -318 1920 0 1920 0 0 318 c0 174 -5 346 -11 381 -30 190 -175 328 -371 355
l-38 5 -1 -132 c0 -73 -4 -184 -8 -248 -6 -104 -10 -121 -34 -158 -75 -113
-212 -133 -315 -46 -66 55 -71 77 -78 344 l-7 241 -1057 0 -1057 0 -7 -240
c-4 -132 -11 -251 -16 -264 -5 -13 -24 -41 -42 -61 -86 -99 -230 -99 -316 0
-18 20 -37 48 -42 61 -5 13 -12 132 -16 264 -4 132 -10 239 -13 239 -3 -1 -30
-5 -59 -10z"/>
<path d="M640 3305 l0 -105 1920 0 1920 0 0 105 0 105 -1920 0 -1920 0 0 -105z"/>
</g>
</svg>
